<?xml version="1.0" standalone="no"?>
<!DOCTYPE svg PUBLIC "-//W3C//DTD SVG 20010904//EN"
 "http://www.w3.org/TR/2001/REC-SVG-20010904/DTD/svg10.dtd">
<svg version="1.0" xmlns="http://www.w3.org/2000/svg"
 width="500.000000pt" height="500.000000pt" viewBox="0 0 500.000000 500.000000"
 preserveAspectRatio="xMidYMid meet">
<metadata>
Created by potrace 1.14, written by Peter Selinger 2001-2017
</metadata>
<g transform="translate(0.000000,500.000000) scale(0.100000,-0.100000)"
fill="#000000" stroke="none">
<path d="M1571 3788 c-5 -13 -181 -446 -391 -963 -210 -517 -386 -950 -391
-963 l-9 -22 217 2 217 3 35 98 35 97 317 0 316 0 38 -100 38 -100 214 0 c168
0 214 3 210 13 -13 29 -81 196 -98 238 l-18 47 69 -68 c115 -113 278 -199 452
-237 116 -25 360 -25 478 1 280 60 507 234 634 483 87 174 126 382 106 577
-38 378 -247 673 -570 806 -234 97 -594 94 -823 -5 -344 -149 -545 -457 -565
-867 l-7 -136 -226 556 c-193 474 -229 557 -248 560 -14 2 -24 -4 -30 -20z
m1702 -440 c170 -64 294 -207 342 -393 20 -78 20 -242 0 -320 -68 -267 -275
-428 -550 -428 -109 0 -177 14 -271 59 -246 116 -366 449 -266 739 64 185 195
308 382 360 88 24 276 15 363 -17z m-1584 -704 c45 -127 81 -234 81 -238 0 -3
-76 -6 -170 -6 -93 0 -170 4 -170 9 0 9 142 405 161 450 5 13 12 22 14 20 2
-3 40 -108 84 -235z"/>
</g>
</svg>
